<svg width="195.57399999999998" height="96.744" xmlns="http://www.w3.org/2000/svg">

 <g>
  <title>background</title>
  <rect fill="none" id="canvas_background" height="402" width="582" y="-1" x="-1"/>
 </g>
 <g>
  <title>Layer 1</title>
  <rect fill="none" height="96.744003" width="195.574005" y="0" x="0" id="svgEditorBackground"/>
  <g id="svg_1">
   <g id="svg_2">
    <g id="A_1_">
     <path id="svg_3" d="m23.688,0c13.1,0 23.705,10.606 23.705,23.682c0,13.077 -10.605,23.682 -23.705,23.682c-13.082,0 -23.688,-10.605 -23.688,-23.682c0,-13.076 10.606,-23.682 23.688,-23.682z" fill="#141414"/>
    </g>
    <g id="svg_4">
     <path id="svg_5" fill="#a33737" d="m32.448,38.835l-2.778,-7.663l-12.128,0l-2.645,7.663l-5.481,0l11.467,-30.309l5.583,0l11.512,30.309l-5.53,0zm-8.79,-25.756l-0.129,0c-0.107,0.847 -0.238,1.577 -0.45,2.174l-4.137,11.679l9.293,0l-4.163,-11.679c-0.132,-0.366 -0.283,-1.09 -0.414,-2.174z"/>
    </g>
   </g>
   <g id="svg_6">
    <g id="B_1_">
     <path id="svg_7" d="m73.084,0c13.097,0 23.703,10.61 23.703,23.687s-10.606,23.682 -23.703,23.682c-13.085,0 -23.69,-10.606 -23.69,-23.683s10.605,-23.686 23.69,-23.686z" fill="#141414"/>
    </g>
    <g id="svg_8">
     <path id="svg_9" fill="#a33737" d="m83.288,30.01c0,2.628 -0.985,4.783 -2.925,6.385c-1.957,1.633 -4.47,2.437 -7.566,2.437l-9.908,0l0,-30.302l9.572,0c2.898,0 5.194,0.646 6.867,1.884c1.684,1.266 2.523,2.952 2.523,5.089c0,1.646 -0.504,3.096 -1.5,4.348c-1.014,1.28 -2.322,2.15 -3.956,2.67l0,0.091c2.164,0.274 3.842,1.075 5.069,2.372c1.199,1.327 1.824,2.983 1.824,5.026zm-6.769,-13.539c0,-1.205 -0.454,-2.144 -1.332,-2.795c-0.907,-0.649 -2.224,-0.973 -3.979,-0.973l-3.277,0l0,8.383l3.232,0c1.693,0 3.021,-0.4 3.955,-1.201c0.926,-0.801 1.401,-1.92 1.401,-3.414zm1.434,13.402c0,-1.449 -0.508,-2.585 -1.558,-3.409c-1.051,-0.814 -2.595,-1.206 -4.674,-1.206l-3.79,0l0,9.413l4.239,0c1.801,0 3.212,-0.438 4.237,-1.308c1.044,-0.855 1.546,-2.026 1.546,-3.49z"/>
    </g>
   </g>
   <g id="svg_10">
    <g id="Y_1_">
     <path id="svg_11" d="m171.869,0c13.1,0 23.705,10.614 23.705,23.69c0,13.077 -10.605,23.682 -23.705,23.682c-13.082,0 -23.688,-10.605 -23.688,-23.682c0,-13.076 10.606,-23.69 23.688,-23.69z" fill="#141414"/>
    </g>
    <g id="svg_12">
     <path id="svg_13" fill="#a33737" d="m174.266,27.847l0,10.987l-4.997,0l0,-10.864l-9.847,-19.436l5.721,0l6.095,12.646c0.213,0.411 0.339,0.783 0.438,1.121c0.099,0.336 0.176,0.61 0.256,0.825l0.045,0c0.151,-0.642 0.373,-1.275 0.695,-1.903l6.323,-12.689l5.319,0l-10.048,19.313z"/>
    </g>
   </g>
   <g id="svg_14">
    <g id="X_1_">
     <path id="svg_15" d="m122.47,0c13.105,0 23.711,10.61 23.711,23.687s-10.605,23.683 -23.711,23.683c-13.076,0 -23.683,-10.606 -23.683,-23.683s10.607,-23.687 23.683,-23.687z" fill="#141414"/>
    </g>
    <g id="svg_16">
     <path id="svg_17" fill="#a33737" d="m129.59,38.831l-6.406,-11.019c-0.132,-0.288 -0.242,-0.532 -0.309,-0.763c-0.049,-0.258 -0.121,-0.502 -0.212,-0.763l-0.092,0c-0.116,0.275 -0.19,0.523 -0.267,0.775c-0.077,0.222 -0.187,0.462 -0.336,0.75l-6.523,11.019l-6.123,0l10.137,-15.189l-9.259,-15.111l6.186,0l5.401,9.954c0.519,0.885 0.861,1.64 1.048,2.266l0.073,0c0.305,-0.793 0.537,-1.311 0.657,-1.56c0.109,-0.237 2.209,-3.797 6.27,-10.66l5.674,0l-9.459,15.02l9.581,15.281l-6.041,0z"/>
    </g>
   </g>
  </g>
  <g id="svg_18">
   <g id="svg_19">
    <g id="A_2_">
     <path id="svg_20" d="m23.688,49.376c13.1,0 23.705,10.606 23.705,23.682c0,13.077 -10.605,23.682 -23.705,23.682c-13.082,0 -23.688,-10.605 -23.688,-23.682c0,-13.076 10.606,-23.682 23.688,-23.682z" fill="#FFFFFF"/>
    </g>
    <g id="svg_21">
     <path id="svg_22" fill="#FE7058" d="m32.448,88.211l-2.778,-7.663l-12.128,0l-2.645,7.663l-5.481,0l11.467,-30.309l5.583,0l11.512,30.309l-5.53,0zm-8.79,-25.756l-0.129,0c-0.107,0.847 -0.238,1.577 -0.45,2.174l-4.137,11.679l9.293,0l-4.163,-11.679c-0.132,-0.366 -0.283,-1.09 -0.414,-2.174z"/>
    </g>
   </g>
   <g id="svg_23">
    <g id="B_2_">
     <path id="svg_24" d="m73.084,49.374c13.097,0 23.703,10.61 23.703,23.687s-10.606,23.682 -23.703,23.682c-13.085,0 -23.69,-10.606 -23.69,-23.683s10.605,-23.686 23.69,-23.686z" fill="#FFFFFF"/>
    </g>
    <g id="svg_25">
     <path id="svg_26" fill="#FE7058" d="m83.288,79.383c0,2.628 -0.985,4.783 -2.925,6.385c-1.957,1.633 -4.47,2.437 -7.566,2.437l-9.908,0l0,-30.301l9.572,0c2.898,0 5.194,0.646 6.867,1.884c1.684,1.266 2.523,2.952 2.523,5.089c0,1.646 -0.504,3.096 -1.5,4.348c-1.014,1.28 -2.322,2.15 -3.956,2.67l0,0.091c2.164,0.274 3.842,1.075 5.069,2.372c1.199,1.326 1.824,2.982 1.824,5.025zm-6.769,-13.539c0,-1.205 -0.454,-2.144 -1.332,-2.795c-0.907,-0.649 -2.224,-0.973 -3.979,-0.973l-3.277,0l0,8.383l3.232,0c1.693,0 3.021,-0.4 3.955,-1.201c0.926,-0.8 1.401,-1.92 1.401,-3.414zm1.434,13.403c0,-1.449 -0.508,-2.585 -1.558,-3.409c-1.051,-0.814 -2.595,-1.206 -4.674,-1.206l-3.79,0l0,9.413l4.239,0c1.801,0 3.212,-0.438 4.237,-1.308c1.044,-0.856 1.546,-2.027 1.546,-3.49z"/>
    </g>
   </g>
   <g id="svg_27">
    <g id="Y_2_">
     <path id="svg_28" d="m171.869,49.372c13.1,0 23.705,10.614 23.705,23.69c0,13.077 -10.605,23.682 -23.705,23.682c-13.082,0 -23.688,-10.605 -23.688,-23.682c0,-13.076 10.606,-23.69 23.688,-23.69z" fill="#FFFFFF"/>
    </g>
    <g id="svg_29">
     <path id="svg_30" fill="#FE7058" d="m174.266,77.219l0,10.987l-4.997,0l0,-10.864l-9.847,-19.436l5.721,0l6.095,12.646c0.213,0.411 0.339,0.783 0.438,1.121c0.099,0.336 0.176,0.61 0.256,0.825l0.045,0c0.151,-0.642 0.373,-1.275 0.695,-1.903l6.323,-12.689l5.319,0l-10.048,19.313z"/>
    </g>
   </g>
   <g id="svg_31">
    <g id="X_2_">
     <path id="svg_32" d="m122.47,49.374c13.105,0 23.711,10.61 23.711,23.687s-10.605,23.683 -23.711,23.683c-13.076,0 -23.683,-10.606 -23.683,-23.683s10.607,-23.687 23.683,-23.687z" fill="#FFFFFF"/>
    </g>
    <g id="svg_33">
     <path id="svg_34" fill="#FE7058" d="m129.59,88.205l-6.406,-11.019c-0.132,-0.288 -0.242,-0.532 -0.309,-0.763c-0.049,-0.258 -0.121,-0.502 -0.212,-0.763l-0.092,0c-0.116,0.275 -0.19,0.523 -0.267,0.775c-0.077,0.222 -0.187,0.462 -0.336,0.75l-6.523,11.019l-6.123,0l10.137,-15.189l-9.26,-15.111l6.186,0l5.401,9.954c0.519,0.885 0.861,1.64 1.048,2.266l0.073,0c0.305,-0.793 0.537,-1.311 0.657,-1.56c0.109,-0.237 2.209,-3.797 6.27,-10.66l5.674,0l-9.459,15.02l9.581,15.281l-6.04,0z"/>
    </g>
   </g>
  </g>
  <g id="svg_35"/>
  <g id="svg_36"/>
  <g id="svg_37"/>
  <g id="svg_38"/>
  <g id="svg_39"/>
  <g id="svg_40"/>
  <g id="svg_41"/>
  <g id="svg_42"/>
  <g id="svg_43"/>
  <g id="svg_44"/>
  <g id="svg_45"/>
  <g id="svg_46"/>
  <g id="svg_47"/>
  <g id="svg_48"/>
  <g id="svg_49"/>
 </g>
</svg>