<svg width="750" height="630.455" xmlns="http://www.w3.org/2000/svg">

 <g>
  <title>background</title>
  <rect fill="none" id="canvas_background" height="402" width="582" y="-1" x="-1"/>
 </g>
 <g>
  <title>Layer 1</title>
  <rect fill="none" height="630.455017" width="750" y="0" x="0" id="svgEditorBackground"/>
  <g id="svg_1">
   <path id="svg_2" fill="#c13636" d="m664.368,213.96c-6.72,-16.682 -20.542,-20.877 -21.818,-22.003c-11.701,-10.336 -2.474,-21.214 -19.946,-30.695c-18.281,-9.914 -71.979,-36.997 -114.22,-31.375c-9.225,1.235 -27.837,17.608 -41.214,17.608c-21.865,0 -92.165,0 -92.165,0s-70.3,0 -92.165,0c-13.377,0 -31.99,-16.374 -41.215,-17.608c-42.248,-5.622 -95.939,21.461 -114.22,31.375c-17.472,9.481 -8.243,20.359 -19.941,30.695c-1.281,1.125 -15.104,5.321 -21.823,22.003c-62.752,156.024 -87.382,255.154 -85.546,315.169c2.891,94.416 76.578,101.326 76.578,101.326c37.033,-8.617 111.55,-129.135 168.535,-129.135c31.16,0 129.797,0 129.797,0s98.637,0 129.797,0c56.985,0 131.502,120.518 168.538,129.135c0,0 73.678,-6.91 76.563,-101.326c1.864,-60.015 -22.81,-159.145 -85.535,-315.169z"/>
   <path id="svg_3" fill="#c13636" d="m548.358,114.946l50.436,6.849c-12.066,-116.821 -42.972,-111.033 -49.714,-116.329c-0.402,-0.319 -0.805,-0.618 -1.211,-0.899c-6.416,-4.476 -13.566,-4.873 -25.826,-4.425c-10.823,0.403 -12.063,11.439 -12.182,15.19l0,1.227c0,0 2.9,40.716 0,93.094c9.787,2.256 37.718,5.211 38.497,5.293z"/>
   <path id="svg_4" fill="#c13636" d="m201.676,114.95c0,0 28.613,-3.009 38.539,-5.298c-2.901,-52.378 0,-93.094 0,-93.094l0,-1.227c-0.124,-3.751 -1.36,-14.787 -12.193,-15.19c-12.249,-0.448 -19.398,-0.051 -25.815,4.425c-0.407,0.281 -0.811,0.58 -1.211,0.899c-6.756,5.296 -37.648,-0.492 -49.715,116.329l50.395,-6.846l0,0.002z"/>
  </g>
  <g id="svg_5">
   <path id="svg_6" d="m184.219,353.411l0,-44.813l12.938,0c16.521,0 24.781,7.281 24.781,21.844c0,6.917 -2.292,12.474 -6.875,16.672c-4.583,4.198 -10.729,6.297 -18.438,6.297l-12.406,0zm7.406,-38.5l0,32.219l5.938,0c5.229,0 9.297,-1.438 12.203,-4.313s4.359,-6.938 4.359,-12.188c0,-10.479 -5.427,-15.719 -16.281,-15.719l-6.219,0l0,0.001z" fill="#FFFFFF"/>
   <path id="svg_7" d="m232.969,314.692c-1.188,0 -2.203,-0.385 -3.047,-1.156c-0.844,-0.771 -1.266,-1.75 -1.266,-2.938s0.422,-2.177 1.266,-2.969c0.844,-0.792 1.859,-1.188 3.047,-1.188c1.229,0 2.271,0.396 3.125,1.188c0.854,0.792 1.281,1.781 1.281,2.969c0,1.125 -0.427,2.089 -1.281,2.891c-0.855,0.803 -1.896,1.203 -3.125,1.203zm3.594,38.719l-7.25,0l0,-32l7.25,0l0,32z" fill="#FFFFFF"/>
   <path id="svg_8" d="m244.031,352.411l0,-6.719c2.708,2.063 5.698,3.094 8.969,3.094c4.375,0 6.563,-1.292 6.563,-3.875c0,-0.729 -0.188,-1.349 -0.563,-1.859c-0.375,-0.51 -0.88,-0.963 -1.516,-1.359c-0.636,-0.396 -1.386,-0.75 -2.25,-1.063c-0.865,-0.313 -1.828,-0.667 -2.891,-1.063c-1.313,-0.521 -2.495,-1.073 -3.547,-1.656c-1.052,-0.583 -1.927,-1.245 -2.625,-1.984c-0.698,-0.739 -1.224,-1.578 -1.578,-2.516c-0.354,-0.938 -0.531,-2.031 -0.531,-3.281c0,-1.542 0.364,-2.901 1.094,-4.078c0.729,-1.177 1.708,-2.167 2.938,-2.969c1.229,-0.802 2.625,-1.406 4.188,-1.813s3.177,-0.609 4.844,-0.609c2.958,0 5.604,0.448 7.938,1.344l0,6.344c-2.25,-1.542 -4.833,-2.313 -7.75,-2.313c-0.917,0 -1.745,0.094 -2.484,0.281c-0.74,0.188 -1.37,0.448 -1.891,0.781c-0.521,0.333 -0.927,0.734 -1.219,1.203c-0.292,0.469 -0.438,0.984 -0.438,1.547c0,0.688 0.146,1.271 0.438,1.75c0.292,0.479 0.724,0.901 1.297,1.266c0.573,0.365 1.26,0.698 2.063,1c0.802,0.302 1.724,0.63 2.766,0.984c1.375,0.563 2.609,1.136 3.703,1.719c1.094,0.583 2.026,1.245 2.797,1.984c0.771,0.74 1.364,1.594 1.781,2.563c0.417,0.969 0.625,2.12 0.625,3.453c0,1.625 -0.375,3.042 -1.125,4.25c-0.75,1.208 -1.75,2.208 -3,3c-1.25,0.792 -2.693,1.38 -4.328,1.766c-1.636,0.385 -3.359,0.578 -5.172,0.578c-3.502,0 -6.533,-0.583 -9.096,-1.75z" fill="#FFFFFF"/>
   <path id="svg_9" d="m296.531,351.942c-2.563,1.479 -5.594,2.219 -9.094,2.219c-4.75,0 -8.583,-1.484 -11.5,-4.453c-2.917,-2.969 -4.375,-6.817 -4.375,-11.547c0,-5.271 1.567,-9.505 4.703,-12.703c3.135,-3.198 7.328,-4.797 12.578,-4.797c2.917,0 5.489,0.511 7.719,1.531l0,6.75c-2.229,-1.667 -4.604,-2.5 -7.125,-2.5c-3.063,0 -5.573,1.037 -7.531,3.109c-1.958,2.073 -2.938,4.787 -2.938,8.141c0,3.313 0.922,5.927 2.766,7.844c1.844,1.917 4.317,2.875 7.422,2.875c2.604,0 5.063,-0.927 7.375,-2.781l0,6.312z" fill="#FFFFFF"/>
   <path id="svg_10" d="m317.906,354.161c-4.938,0 -8.88,-1.495 -11.828,-4.484c-2.948,-2.989 -4.422,-6.953 -4.422,-11.891c0,-5.375 1.536,-9.573 4.609,-12.594c3.073,-3.021 7.213,-4.531 12.422,-4.531c5,0 8.896,1.469 11.688,4.406c2.792,2.938 4.188,7.011 4.188,12.219c0,5.104 -1.505,9.193 -4.516,12.266c-3.011,3.073 -7.058,4.609 -12.141,4.609zm0.344,-27.719c-2.833,0 -5.073,0.99 -6.719,2.969c-1.646,1.979 -2.469,4.708 -2.469,8.188c0,3.354 0.833,5.995 2.5,7.922c1.667,1.927 3.896,2.891 6.688,2.891c2.854,0 5.047,-0.948 6.578,-2.844c1.531,-1.896 2.297,-4.594 2.297,-8.094c0,-3.521 -0.766,-6.239 -2.297,-8.156c-1.531,-1.917 -3.724,-2.876 -6.578,-2.876z" fill="#FFFFFF"/>
   <path id="svg_11" d="m370.438,353.411l-7.25,0l0,-18.031c0,-5.979 -2.115,-8.969 -6.344,-8.969c-2.208,0 -4.031,0.828 -5.469,2.484s-2.156,3.745 -2.156,6.266l0,18.25l-7.281,0l0,-32l7.281,0l0,5.313l0.125,0c2.396,-4.042 5.854,-6.063 10.375,-6.063c3.479,0 6.135,1.13 7.969,3.391c1.833,2.261 2.75,5.526 2.75,9.797l0,19.562z" fill="#FFFFFF"/>
   <path id="svg_12" d="m407.781,353.411l-7.25,0l0,-18.031c0,-5.979 -2.115,-8.969 -6.344,-8.969c-2.208,0 -4.031,0.828 -5.469,2.484s-2.156,3.745 -2.156,6.266l0,18.25l-7.281,0l0,-32l7.281,0l0,5.313l0.125,0c2.396,-4.042 5.854,-6.063 10.375,-6.063c3.479,0 6.135,1.13 7.969,3.391c1.833,2.261 2.75,5.526 2.75,9.797l0,19.562z" fill="#FFFFFF"/>
   <path id="svg_13" d="m443.719,339.38l-21.813,0c0.083,2.958 0.995,5.24 2.734,6.844c1.739,1.604 4.13,2.406 7.172,2.406c3.417,0 6.552,-1.021 9.406,-3.063l0,5.844c-2.917,1.833 -6.771,2.75 -11.563,2.75c-4.708,0 -8.401,-1.453 -11.078,-4.359c-2.677,-2.906 -4.016,-6.995 -4.016,-12.266c0,-4.979 1.474,-9.036 4.422,-12.172c2.948,-3.135 6.609,-4.703 10.984,-4.703s7.76,1.406 10.156,4.219c2.396,2.813 3.594,6.719 3.594,11.719l0,2.781l0.002,0zm-7,-5.125c-0.021,-2.604 -0.636,-4.63 -1.844,-6.078c-1.208,-1.448 -2.875,-2.172 -5,-2.172c-2.083,0 -3.849,0.761 -5.297,2.281c-1.448,1.521 -2.339,3.511 -2.672,5.969l14.813,0z" fill="#FFFFFF"/>
   <path id="svg_14" d="m473.531,351.942c-2.563,1.479 -5.594,2.219 -9.094,2.219c-4.75,0 -8.583,-1.484 -11.5,-4.453c-2.917,-2.969 -4.375,-6.817 -4.375,-11.547c0,-5.271 1.567,-9.505 4.703,-12.703c3.135,-3.198 7.328,-4.797 12.578,-4.797c2.917,0 5.489,0.511 7.719,1.531l0,6.75c-2.229,-1.667 -4.604,-2.5 -7.125,-2.5c-3.063,0 -5.573,1.037 -7.531,3.109c-1.958,2.073 -2.938,4.787 -2.938,8.141c0,3.313 0.922,5.927 2.766,7.844c1.844,1.917 4.317,2.875 7.422,2.875c2.604,0 5.063,-0.927 7.375,-2.781l0,6.312z" fill="#FFFFFF"/>
   <path id="svg_15" d="m497.594,353.067c-1.417,0.708 -3.281,1.063 -5.594,1.063c-6.208,0 -9.313,-2.979 -9.313,-8.938l0,-18.094l-5.344,0l0,-5.688l5.344,0l0,-7.406l7.25,-2.063l0,9.469l7.656,0l0,5.688l-7.656,0l0,16c0,1.896 0.344,3.25 1.031,4.063s1.833,1.219 3.438,1.219c1.229,0 2.292,-0.354 3.188,-1.063l0,5.75z" fill="#FFFFFF"/>
   <path id="svg_16" d="m530.563,339.38l-21.813,0c0.083,2.958 0.995,5.24 2.734,6.844c1.739,1.604 4.13,2.406 7.172,2.406c3.417,0 6.552,-1.021 9.406,-3.063l0,5.844c-2.917,1.833 -6.771,2.75 -11.563,2.75c-4.708,0 -8.401,-1.453 -11.078,-4.359c-2.677,-2.906 -4.016,-6.995 -4.016,-12.266c0,-4.979 1.474,-9.036 4.422,-12.172c2.948,-3.135 6.609,-4.703 10.984,-4.703s7.76,1.406 10.156,4.219c2.396,2.813 3.594,6.719 3.594,11.719l0,2.781l0.002,0zm-7,-5.125c-0.021,-2.604 -0.636,-4.63 -1.844,-6.078c-1.208,-1.448 -2.875,-2.172 -5,-2.172c-2.083,0 -3.849,0.761 -5.297,2.281c-1.448,1.521 -2.339,3.511 -2.672,5.969l14.813,0z" fill="#FFFFFF"/>
   <path id="svg_17" d="m566.563,353.411l-7.25,0l0,-5.438l-0.125,0c-2.333,4.125 -5.927,6.188 -10.781,6.188c-3.938,0 -7.089,-1.432 -9.453,-4.297c-2.365,-2.864 -3.547,-6.766 -3.547,-11.703c0,-5.292 1.307,-9.531 3.922,-12.719c2.614,-3.188 6.099,-4.781 10.453,-4.781c4.313,0 7.448,1.729 9.406,5.188l0.125,0l0,-19.813l7.25,0l0,47.375zm-7.157,-14.625l0,-4.188c0,-2.271 -0.74,-4.198 -2.219,-5.781c-1.479,-1.583 -3.365,-2.375 -5.656,-2.375c-2.708,0 -4.839,1.011 -6.391,3.031c-1.552,2.021 -2.328,4.823 -2.328,8.406c0,3.25 0.745,5.818 2.234,7.703c1.489,1.886 3.495,2.828 6.016,2.828c2.479,0 4.489,-0.911 6.031,-2.734c1.542,-1.822 2.313,-4.119 2.313,-6.89z" fill="#FFFFFF"/>
  </g>
  <g id="svg_18"/>
  <g id="svg_19"/>
  <g id="svg_20"/>
  <g id="svg_21"/>
  <g id="svg_22"/>
  <g id="svg_23"/>
  <g id="svg_24"/>
  <g id="svg_25"/>
  <g id="svg_26"/>
  <g id="svg_27"/>
  <g id="svg_28"/>
  <g id="svg_29"/>
  <g id="svg_30"/>
  <g id="svg_31"/>
  <g id="svg_32"/>
 </g>
</svg>